<svg width="80" height="80" viewBox="0 0 80 80" fill="none" xmlns="http://www.w3.org/2000/svg">
<circle cx="40" cy="40" r="40" fill="black"/>
<path d="M39.9971 39.9999C39.9971 36.3181 42.9818 33.3333 46.6637 33.3333C50.3456 33.3333 53.3304 36.318 53.3304 39.9999C53.3304 43.6818 50.3456 46.6666 46.6637 46.6666C42.9818 46.6666 39.9971 43.6818 39.9971 39.9999Z" fill="#6AA7F3"/>
<path d="M26.6641 53.3334C26.6641 49.6515 29.6488 46.6667 33.3307 46.6667H39.9974V53.3334C39.9974 57.0153 37.0126 60.0001 33.3307 60.0001C29.6488 60.0001 26.6641 57.0153 26.6641 53.3334Z" fill="#0FA958"/>
<path d="M39.9971 20V33.3333H46.6637C50.3456 33.3333 53.3304 30.3486 53.3304 26.6667C53.3304 22.9848 50.3456 20 46.6637 20H39.9971Z" fill="#FF8577"/>
<path d="M26.6641 26.6666C26.6641 30.3485 29.6488 33.3333 33.3307 33.3333H39.9974V19.9999H33.3307C29.6488 19.9999 26.6641 22.9847 26.6641 26.6666Z" fill="#F24E1E"/>
<path d="M26.6641 40.0001C26.6641 43.682 29.6488 46.6667 33.3307 46.6667H39.9974V33.3334H33.3307C29.6488 33.3334 26.6641 36.3182 26.6641 40.0001Z" fill="#A259FF"/>
</svg>
